<?xml version="1.0" encoding="UTF-8"?>
<svg width="30px" height="30px" viewBox="0 0 30 30" version="1.1" xmlns="http://www.w3.org/2000/svg" xmlns:xlink="http://www.w3.org/1999/xlink">
    <!-- Generator: Sketch 51.2 (57519) - http://www.bohemiancoding.com/sketch -->
    <title>Icons / M2 / Inline</title>
    <desc>Created with Sketch.</desc>
    <defs></defs>
    <g id="Icons-/-M2-/-Inline" stroke="none" stroke-width="1" fill="none" fill-rule="evenodd" stroke-linejoin="round">
        <polyline id="Stroke-5275" stroke="#FFFFFF" stroke-width="1.5" stroke-linecap="round" points="12.4995 19.5 12.4995 25.5 23.4995 25.5 23.4995 19.5"></polyline>
        <polyline id="Stroke-5276" stroke="#FFFFFF" stroke-width="1.5" stroke-linecap="round" points="9.4995 19 17.9995 10.5 26.4995 19"></polyline>
        <polyline id="Stroke-5277" stroke="#FFFFFF" stroke-width="1.5" stroke-linecap="round" points="21.9995 11.5 25.4995 11.5 25.4995 15"></polyline>
        <polygon id="Stroke-5278" stroke="#FFFFFF" stroke-width="1.5" stroke-linecap="round" points="16.5 18.5 19.5 18.5 19.5 15.5 16.5 15.5"></polygon>
        <polygon id="Stroke-5279" stroke="#FFFFFF" stroke-width="1.5" points="3.5 25.5 7.5 25.5 7.5 7.5 3.5 7.5"></polygon>
        <polygon id="Stroke-5280" stroke="#FFFFFF" stroke-width="1.5" points="7.5 7.5 25.5 7.5 25.5 3.5 7.5 3.5"></polygon>
        <polygon id="Stroke-5281" stroke="#FFFFFF" stroke-width="1.5" points="3.5 7.5 7.5 7.5 7.5 3.5 3.5 3.5"></polygon>
        <path d="M10.4995,7.5 L10.4995,5.5" id="Stroke-5282" stroke="#FFFFFF" stroke-width="1.5" stroke-linecap="round"></path>
        <path d="M14.4995,7.5 L14.4995,5.5" id="Stroke-5283" stroke="#FFFFFF" stroke-width="1.5" stroke-linecap="round"></path>
        <path d="M18.4995,7.5 L18.4995,5.5" id="Stroke-5284" stroke="#FFFFFF" stroke-width="1.5" stroke-linecap="round"></path>
        <path d="M22.4995,7.5 L22.4995,5.5" id="Stroke-5285" stroke="#FFFFFF" stroke-width="1.5" stroke-linecap="round"></path>
        <path d="M7.4995,22.5 L5.4995,22.5" id="Stroke-5286" stroke="#FFFFFF" stroke-width="1.5" stroke-linecap="round"></path>
        <path d="M7.4995,18.5 L5.4995,18.5" id="Stroke-5287" stroke="#FFFFFF" stroke-width="1.5" stroke-linecap="round"></path>
        <path d="M7.4995,14.5 L5.4995,14.5" id="Stroke-5288" stroke="#FFFFFF" stroke-width="1.5" stroke-linecap="round"></path>
        <path d="M7.4995,10.5 L5.4995,10.5" id="Stroke-5289" stroke="#FFFFFF" stroke-width="1.5" stroke-linecap="round"></path>
    </g>
</svg>